<?xml version="1.0" ?><svg viewBox="0 0 24 24" xmlns="http://www.w3.org/2000/svg"><title/><g data-name="Layer 2" id="Layer_2"><path d="M21.53,10.15a1,1,0,0,0-1,0L18,11.38V10a1,1,0,0,0-1-1H15.82A3,3,0,0,0,16,8a3,3,0,0,0-3-3,3,3,0,0,0-1.37.35A4,4,0,0,0,4,7a4,4,0,0,0,.56,2H3a1,1,0,0,0-1,1V20a1,1,0,0,0,1,1H17a1,1,0,0,0,1-1V18.62l2.55,1.28A1,1,0,0,0,22,19V11A1,1,0,0,0,21.53,10.15ZM13,7a1,1,0,1,1-1,1A1,1,0,0,1,13,7ZM6,7A2,2,0,1,1,8,9,2,2,0,0,1,6,7ZM16,19H4V11H16v8Zm4-1.62-2-1V13.62l2-1Z"/><rect height="2" width="4" x="5" y="16"/></g></svg>